<svg width="23" height="35" viewBox="0 0 23 35" fill="none" xmlns="http://www.w3.org/2000/svg">
<path d="M18.8379 24.7024C17.1098 24.0182 14.0742 23.5004 14.0742 16.3677H11.3682H10.9052H8.19922C8.19922 23.5004 5.16361 24.0182 3.43552 24.7024C3.43552 29.554 9.80761 29.7031 10.9052 30.1553V30.3128C10.9052 30.3128 10.9905 30.2935 11.1367 30.2431C11.2829 30.2935 11.3682 30.3128 11.3682 30.3128V30.1553C12.4658 29.7031 18.8379 29.5539 18.8379 24.7024Z" fill="#F3D8B6"/>
<path d="M14.0743 16.3677H11.3683H11.1599V30.2508C11.2915 30.2951 11.3683 30.3127 11.3683 30.3127V30.1552C12.4658 29.7031 18.838 29.5539 18.838 24.7023C17.1099 24.0182 14.0743 23.5004 14.0743 16.3677Z" fill="#EEC8A2"/>
<path d="M11.1601 18.6376C8.61859 18.6376 6.67869 16.2697 5.80941 14.494C4.94014 12.7183 4.33859 6.35698 6.21118 3.54526C8.0449 0.791827 11.1601 2.12793 11.1601 2.12793C11.1601 2.12793 14.2752 0.791827 16.109 3.54526C17.9814 6.35698 17.3797 12.7183 16.5103 14.494C15.6408 16.2697 13.7011 18.6376 11.1601 18.6376Z" fill="#F3DBC4"/>
<path d="M16.109 3.54538C14.2751 0.791949 11.1601 2.12806 11.1601 2.12806H11.1599V18.6377H11.1601C13.7012 18.6377 15.6408 16.2698 16.5104 14.4941C17.3797 12.7184 17.9814 6.3571 16.109 3.54538Z" fill="#EDCEAE"/>
<path d="M16.4788 3.11979C16.2789 3.12799 15.3418 -0.08635 12.8423 0.63061C11.1262 1.12285 10.9096 1.39049 10.2391 1.59984C7.51646 0.676598 4.91243 3.0821 5.00908 5.33704C5.17192 9.13386 4.56676 9.07599 4.98177 10.4023C5.39678 11.7285 5.7655 12.7997 5.7655 12.7997C5.7655 12.7997 5.85771 13.1648 6.04212 11.0734C6.22653 8.98207 5.60655 7.85952 7.07312 7.85952C11.9288 7.85952 5.24959 9.94607 8.36472 9.94607C11.4559 9.94607 13.8454 7.14163 15.3004 6.93771C16.7553 6.73368 16.147 8.98207 16.3314 11.0734C16.5158 13.1648 16.608 12.7997 16.608 12.7997C16.608 12.7997 17.4338 11.8049 17.3918 10.4023C17.3445 8.81942 17.9815 3.05814 16.4788 3.11979Z" fill="black"/>
<path d="M16.4788 3.11992C16.2789 3.12811 15.3418 -0.0862279 12.8423 0.630732C11.9933 0.874192 11.5115 1.06275 11.1599 1.21649V9.23641C12.9163 8.39111 14.3206 7.07498 15.3004 6.93773C16.7554 6.7337 16.147 8.98209 16.3314 11.0735C16.5158 13.1648 16.608 12.7997 16.608 12.7997C16.608 12.7997 17.4338 11.805 17.3917 10.4023C17.3445 8.81944 17.9814 3.05816 16.4788 3.11992Z" fill="black"/>
<path d="M15.0634 10.9587H12.5001C12.3904 10.9587 12.282 10.9836 12.1825 11.0318L11.1758 11.4285L10.1692 11.0318C10.0697 10.9836 9.96125 10.9587 9.85155 10.9587H7.28835C6.77836 10.9587 6.60228 11.9291 6.60228 11.9291C6.60228 13.2127 7.45313 14.2533 8.80148 14.2533C9.62373 14.2533 10.4131 13.2864 10.8982 12.5038H11.4536C11.9387 13.2864 12.7282 14.2533 13.5504 14.2533C14.8987 14.2533 15.7496 13.2127 15.7496 11.9291C15.7495 11.9291 15.5734 10.9587 15.0634 10.9587Z" fill="#949494"/>
<path d="M15.0634 10.9587H12.5001C12.3904 10.9587 12.282 10.9836 12.1824 11.0318L11.1603 11.4223V12.5038H11.4535C11.9386 13.2864 12.7281 14.2533 13.5502 14.2533C14.8986 14.2533 15.7494 13.2127 15.7494 11.9291C15.7494 11.9291 15.5734 10.9587 15.0634 10.9587Z" fill="#949494"/>
<path d="M18.592 23.0095C18.3882 22.8736 18.0906 22.7496 17.763 22.6377C17.2732 22.4426 16.7217 22.2852 16.3008 22.1702C16.1258 22.1217 15.4541 22.1597 14.9012 20.8198H7.54498C7.05174 22.1648 6.4513 22.1275 6.2967 22.1702C5.63443 22.351 4.37097 22.6366 3.81163 23.0095C1.66131 24.4384 0.0526428 27.1558 0.0526428 30.2727V34.4394H22.2672H22.3511V30.2727C22.351 27.1558 20.7423 24.4384 18.592 23.0095Z" fill="#682234"/>
<path d="M18.592 23.0095C18.3883 22.8736 18.0906 22.7496 17.763 22.6377C17.2732 22.4426 16.7217 22.2852 16.3008 22.1702C16.1258 22.1217 15.4541 22.1597 14.9013 20.8198H11.118V34.4394H22.2672H22.3511V30.2727C22.351 27.1558 20.7423 24.4384 18.592 23.0095Z" fill="#581A2B"/>
<path d="M17.3326 11.0404C17.2655 12.5506 15.2566 14.0439 14.5925 15.0411C13.0372 17.3767 11.1599 15.3745 11.1599 15.3745C11.1599 15.3745 9.32457 17.3767 7.76904 15.0411C7.105 14.0441 5.09632 12.5511 5.0292 11.0411C4.91903 13.178 6.10908 15.3708 6.54566 16.2625C7.28376 17.7701 9.02333 19.7806 11.1811 19.7806C13.3384 19.7806 15.0779 17.7701 15.8161 16.2625C16.2527 15.3707 17.4428 13.1775 17.3326 11.0404Z" fill="black"/>
<path d="M17.3326 11.0404C17.2655 12.5506 15.2567 14.0439 14.5925 15.0411C13.0372 17.3767 11.1599 15.3745 11.1599 15.3745V19.7799C11.1669 19.7799 11.1739 19.7806 11.181 19.7806C13.3383 19.7806 15.0778 17.7702 15.816 16.2625C16.2527 15.3707 17.4428 13.1775 17.3326 11.0404Z" fill="black"/>
<path d="M17.785 12.0675C18.0963 11.1584 17.9593 10.2582 17.4789 10.0568C16.9985 9.85543 16.3567 10.4292 16.0453 11.3383C15.734 12.2474 15.871 13.1476 16.3514 13.349C16.8318 13.5504 17.4736 12.9766 17.785 12.0675Z" fill="#EDCEAE"/>
<path d="M4.53418 12.0674C4.84551 12.9765 5.48733 13.5502 5.96772 13.3488C6.4481 13.1475 6.58515 12.2472 6.27382 11.3381C5.96248 10.429 5.32067 9.85527 4.84028 10.0566C4.35989 10.258 4.22284 11.1583 4.53418 12.0674Z" fill="#F3DBC4"/>
</svg>
