<svg width="18" height="18" viewBox="0 0 18 18" fill="none" xmlns="http://www.w3.org/2000/svg">
<path d="M15.6881 8.46346C15.6876 7.53101 15.0464 6.77551 14.2567 6.77442L6.12412 6.77551L8.32245 4.17923C8.91773 3.47578 8.94836 2.37076 8.38973 1.71005C7.83063 1.05207 6.89479 1.08659 6.29858 1.79003L1.70704 7.2127C1.1099 7.9156 1.07974 9.02117 1.6393 9.68134C1.65461 9.69723 1.67085 9.70928 1.6857 9.72517C1.70472 9.74872 1.71818 9.77666 1.73813 9.80132L6.26842 15.1495C6.85674 15.8431 7.78563 15.8705 8.34426 15.2103C8.90335 14.5501 8.87922 13.4528 8.29276 12.7581L6.08654 10.1536H14.2567C15.0474 10.1541 15.6881 9.3981 15.6881 8.46346Z" fill="#FB923C"/>
</svg>
