<svg width="24" height="24" viewBox="0 0 24 24" fill="none" xmlns="http://www.w3.org/2000/svg">
<path d="M19.8983 8.49818L17.0822 7.33171L18.2487 4.51567C18.4634 3.99722 18.2173 3.40291 17.6988 3.18812L10.1893 0.0776326C9.67089 -0.137089 9.07651 0.109062 8.86179 0.62751L7.69531 3.44355L4.87927 2.27707C4.36082 2.06235 3.76651 2.3085 3.55172 2.82695C3.337 3.3454 3.58315 3.93971 4.1016 4.1545L7.85639 5.70978L14.4015 8.42083H5.90377C5.34265 8.42083 4.88774 8.87574 4.88774 9.43686V22.984C4.88774 23.5451 5.34265 24 5.90377 24H18.0962C18.6573 24 19.1122 23.5451 19.1122 22.984V10.3721L19.1207 10.3756C19.2478 10.4282 19.3795 10.4532 19.5091 10.4532C19.9078 10.4532 20.2861 10.217 20.4482 9.82573C20.6629 9.30728 20.4167 8.7129 19.8983 8.49818ZM9.57274 4.22115L10.3503 2.34379L15.9824 4.67667L15.2048 6.55403L12.3888 5.38763L9.57274 4.22115Z" fill="#F97316"/>
</svg>
