<svg width="21" height="21" viewBox="0 0 21 21" fill="none" xmlns="http://www.w3.org/2000/svg">
<path d="M20.2361 3.48823L17.5121 0.764216C16.951 0.0617957 15.2335 -0.529265 13.94 0.764216L1.48065 13.1808C1.2922 13.3692 1.20226 13.6134 1.21511 13.8489L0.0543993 19.9223C-0.125489 20.6161 0.564082 21.0616 1.03522 20.9931L7.3313 19.7424C7.51119 19.7424 7.64396 19.6525 7.77674 19.5197L20.2361 7.10741C21.2212 6.12231 21.2212 4.47334 20.2361 3.48823ZM15.1907 1.97204C15.4605 1.65937 15.9959 1.65937 16.3086 1.97204L17.0495 2.70015L4.64154 15.1081L3.35235 13.8061L15.1907 1.97204ZM2.64564 15.5921L5.40393 18.3504L1.97321 19.0271L2.64564 15.5921ZM19.0326 5.80965L7.17711 17.6651L5.88791 16.3631L18.3088 3.94224L19.0283 4.64894C19.4223 5.06868 19.2382 5.59978 19.0326 5.80965Z" fill="#F97316"/>
</svg>
