<svg width="24" height="24" viewBox="0 0 24 24" fill="none" xmlns="http://www.w3.org/2000/svg">
<path d="M21.0685 3.85336H2.93155C1.31516 3.85336 0 5.16853 0 6.78491V17.2151C0 18.8314 1.31516 20.1466 2.93155 20.1466H21.0685C22.6848 20.1466 24 18.8314 24 17.2151V6.78523C24.0003 5.16853 22.6852 3.85336 21.0685 3.85336ZM19.636 5.76587L12 10.6855L4.36401 5.76587H19.636ZM21.0685 18.2344H2.93155C2.36959 18.2344 1.9125 17.777 1.9125 17.2154V6.83942L11.41 12.9467C11.4227 12.9546 11.4364 12.9601 11.4495 12.9674C11.4632 12.975 11.4772 12.9824 11.4913 12.9894C11.5649 13.0273 11.6408 13.0579 11.7182 13.078C11.7262 13.0802 11.7342 13.0812 11.7421 13.0831C11.8272 13.1032 11.9133 13.1156 11.9994 13.1156C11.9997 13.1156 12 13.1156 12 13.1156C12.0006 13.1156 12.001 13.1156 12.0013 13.1156C12.0873 13.1156 12.1734 13.1035 12.2585 13.0831C12.2665 13.0812 12.2744 13.0802 12.2824 13.078C12.3599 13.0579 12.4354 13.0273 12.5094 12.9894C12.5234 12.9824 12.5374 12.975 12.5511 12.9674C12.5642 12.9601 12.5779 12.9546 12.5906 12.9467L22.0881 6.83942V17.2151C22.0878 17.777 21.6304 18.2344 21.0685 18.2344Z" fill="#FFEDD5"/>
</svg>
