<svg width="24" height="24" viewBox="0 0 24 24" fill="none" xmlns="http://www.w3.org/2000/svg">
<g clip-path="url(#clip0_2_254)">
<path d="M23.9181 20.5604L21.4463 0.636428C21.3969 0.238765 21.0353 -0.0438815 20.6368 0.00570557L0.712733 2.47744C0.349296 2.52255 0.0764465 2.83144 0.0764465 3.19766V23.2744C0.0764465 23.6752 0.401302 24 0.80211 24H20.8788C21.2795 24 21.6045 23.6752 21.6045 23.2744V21.5786L23.2874 21.3697C23.4784 21.346 23.6522 21.2475 23.7705 21.0957C23.8886 20.9439 23.9418 20.7513 23.9181 20.5604ZM2.47162 22.5487H1.52765V14.9402L2.47162 22.5487ZM1.67895 4.85967C1.65646 4.86245 1.63457 4.86656 1.61292 4.87128L1.46984 3.71796L20.2059 1.39342L20.3486 2.54347L1.67895 4.85967ZM20.1531 22.5487H13.7854L20.1531 21.7587V22.5487ZM3.79426 22.454L1.79059 6.3041C1.81284 6.30338 1.83509 6.30277 1.85759 6.29999L20.5271 3.98379L22.5303 20.1295L3.79426 22.454Z" fill="#FFEDD5"/>
</g>
<defs>
<clipPath id="clip0_2_254">
<rect width="24" height="24" fill="white"/>
</clipPath>
</defs>
</svg>
