<svg width="24" height="24" viewBox="0 0 24 24" fill="none" xmlns="http://www.w3.org/2000/svg">
<path d="M22.6436 3.16858H1.35644C0.608566 3.16858 0 3.77714 0 4.52502V6.49149C0 7.23945 0.608566 7.84801 1.35644 7.84801H22.6436C23.3914 7.84801 24 7.23945 24 6.49149V4.52502C24 3.77714 23.3914 3.16858 22.6436 3.16858Z" fill="#FFEDD5"/>
<path d="M20.8472 9.69696H3.07211C2.44762 9.69696 1.93945 10.296 1.93945 11.0321V12.9678C1.93945 13.704 2.44762 14.303 3.07211 14.303H20.8472C21.4717 14.303 21.9799 13.704 21.9799 12.9678V11.0321C21.9799 10.296 21.4717 9.69696 20.8472 9.69696Z" fill="#FFEDD5"/>
<path d="M22.6436 16.152H1.35644C0.608566 16.152 0 16.7605 0 17.5086V19.475C0 20.2229 0.608566 20.8315 1.35644 20.8315H22.6436C23.3914 20.8315 24 20.2229 24 19.475V17.5086C24 16.7605 23.3914 16.152 22.6436 16.152Z" fill="#FFEDD5"/>
</svg>
