<svg width="24" height="24" viewBox="0 0 24 24" fill="none" xmlns="http://www.w3.org/2000/svg">
<g clip-path="url(#clip0_3_441)">
<path d="M23.9181 20.5604L21.4462 0.636459C21.3969 0.238795 21.0353 -0.0438509 20.6368 0.00573609L0.712702 2.47747C0.349266 2.52258 0.076416 2.83147 0.076416 3.19769V23.2744C0.076416 23.6752 0.401272 24.0001 0.80208 24.0001H20.8788C21.2795 24.0001 21.6044 23.6752 21.6044 23.2744V21.5786L23.2874 21.3698C23.4783 21.3461 23.6521 21.2475 23.7704 21.0957C23.8886 20.9439 23.9418 20.7514 23.9181 20.5604ZM2.47159 22.5487H1.52762V14.9403L2.47159 22.5487ZM1.67892 4.8597C1.65643 4.86248 1.63454 4.8666 1.61289 4.87131L1.46981 3.71799L20.2058 1.39345L20.3486 2.5435L1.67892 4.8597ZM20.1531 22.5487H13.7854L20.1531 21.7587V22.5487ZM3.79423 22.454L1.79056 6.30414C1.81281 6.30341 1.83506 6.30281 1.85756 6.30002L20.5271 3.98383L22.5303 20.1295L3.79423 22.454Z" fill="#FFEDD5"/>
<mask id="path-2-inside-1_3_441" fill="white">
<path d="M12 17C11.248 17 10.6364 16.3943 10.6364 15.6498V13.3636H8.35023C7.60568 13.3636 7 12.752 7 12C7 11.248 7.60568 10.6364 8.35023 10.6364H10.6364V8.35023C10.6364 7.60568 11.248 7 12 7C12.752 7 13.3636 7.60568 13.3636 8.35023V10.6364H15.6498C16.3943 10.6364 17 11.248 17 12C17 12.752 16.3943 13.3636 15.6498 13.3636H13.3636V15.6498C13.3636 16.3943 12.752 17 12 17ZM8.35023 11.0909C7.86477 11.0909 7.45455 11.5073 7.45455 12C7.45455 12.4927 7.86477 12.9091 8.35023 12.9091H11.0909V15.6498C11.0909 16.1352 11.5073 16.5455 12 16.5455C12.4927 16.5455 12.9091 16.1352 12.9091 15.6498V12.9091H15.6498C16.1352 12.9091 16.5455 12.4927 16.5455 12C16.5455 11.5073 16.1352 11.0909 15.6498 11.0909H12.9091V8.35023C12.9091 7.86477 12.4927 7.45455 12 7.45455C11.5073 7.45455 11.0909 7.86477 11.0909 8.35023V11.0909H8.35023Z"/>
</mask>
<path d="M12 17C11.248 17 10.6364 16.3943 10.6364 15.6498V13.3636H8.35023C7.60568 13.3636 7 12.752 7 12C7 11.248 7.60568 10.6364 8.35023 10.6364H10.6364V8.35023C10.6364 7.60568 11.248 7 12 7C12.752 7 13.3636 7.60568 13.3636 8.35023V10.6364H15.6498C16.3943 10.6364 17 11.248 17 12C17 12.752 16.3943 13.3636 15.6498 13.3636H13.3636V15.6498C13.3636 16.3943 12.752 17 12 17ZM8.35023 11.0909C7.86477 11.0909 7.45455 11.5073 7.45455 12C7.45455 12.4927 7.86477 12.9091 8.35023 12.9091H11.0909V15.6498C11.0909 16.1352 11.5073 16.5455 12 16.5455C12.4927 16.5455 12.9091 16.1352 12.9091 15.6498V12.9091H15.6498C16.1352 12.9091 16.5455 12.4927 16.5455 12C16.5455 11.5073 16.1352 11.0909 15.6498 11.0909H12.9091V8.35023C12.9091 7.86477 12.4927 7.45455 12 7.45455C11.5073 7.45455 11.0909 7.86477 11.0909 8.35023V11.0909H8.35023Z" fill="#FB923C"/>
<path d="M10.6364 13.3636H11.6364V12.3636H10.6364V13.3636ZM10.6364 10.6364V11.6364H11.6364V10.6364H10.6364ZM13.3636 10.6364H12.3636V11.6364H13.3636V10.6364ZM13.3636 13.3636V12.3636H12.3636V13.3636H13.3636ZM11.0909 12.9091H12.0909V11.9091H11.0909V12.9091ZM12.9091 12.9091V11.9091H11.9091V12.9091H12.9091ZM12.9091 11.0909H11.9091V12.0909H12.9091V11.0909ZM11.0909 11.0909V12.0909H12.0909V11.0909H11.0909ZM12 16C11.791 16 11.6364 15.8328 11.6364 15.6498H9.63636C9.63636 16.9558 10.705 18 12 18V16ZM11.6364 15.6498V13.3636H9.63636V15.6498H11.6364ZM10.6364 12.3636H8.35023V14.3636H10.6364V12.3636ZM8.35023 12.3636C8.16721 12.3636 8 12.209 8 12H6C6 13.295 7.04415 14.3636 8.35023 14.3636V12.3636ZM8 12C8 11.791 8.16721 11.6364 8.35023 11.6364V9.63636C7.04415 9.63636 6 10.705 6 12H8ZM8.35023 11.6364H10.6364V9.63636H8.35023V11.6364ZM11.6364 10.6364V8.35023H9.63636V10.6364H11.6364ZM11.6364 8.35023C11.6364 8.16721 11.791 8 12 8V6C10.705 6 9.63636 7.04415 9.63636 8.35023H11.6364ZM12 8C12.209 8 12.3636 8.16721 12.3636 8.35023H14.3636C14.3636 7.04415 13.295 6 12 6V8ZM12.3636 8.35023V10.6364H14.3636V8.35023H12.3636ZM13.3636 11.6364H15.6498V9.63636H13.3636V11.6364ZM15.6498 11.6364C15.8328 11.6364 16 11.791 16 12H18C18 10.705 16.9558 9.63636 15.6498 9.63636V11.6364ZM16 12C16 12.209 15.8328 12.3636 15.6498 12.3636V14.3636C16.9558 14.3636 18 13.295 18 12H16ZM15.6498 12.3636H13.3636V14.3636H15.6498V12.3636ZM12.3636 13.3636V15.6498H14.3636V13.3636H12.3636ZM12.3636 15.6498C12.3636 15.8328 12.209 16 12 16V18C13.295 18 14.3636 16.9558 14.3636 15.6498H12.3636ZM8.35023 10.0909C7.29853 10.0909 6.45455 10.969 6.45455 12H8.45455C8.45455 12.0346 8.44049 12.0546 8.43268 12.0625C8.42485 12.0705 8.39841 12.0909 8.35023 12.0909V10.0909ZM6.45455 12C6.45455 13.031 7.29853 13.9091 8.35023 13.9091V11.9091C8.39841 11.9091 8.42485 11.9295 8.43268 11.9375C8.44049 11.9454 8.45455 11.9654 8.45455 12H6.45455ZM8.35023 13.9091H11.0909V11.9091H8.35023V13.9091ZM10.0909 12.9091V15.6498H12.0909V12.9091H10.0909ZM10.0909 15.6498C10.0909 16.7015 10.969 17.5455 12 17.5455V15.5455C12.0346 15.5455 12.0546 15.5595 12.0625 15.5673C12.0705 15.5752 12.0909 15.6016 12.0909 15.6498H10.0909ZM12 17.5455C13.031 17.5455 13.9091 16.7015 13.9091 15.6498H11.9091C11.9091 15.6016 11.9295 15.5752 11.9375 15.5673C11.9454 15.5595 11.9654 15.5455 12 15.5455V17.5455ZM13.9091 15.6498V12.9091H11.9091V15.6498H13.9091ZM12.9091 13.9091H15.6498V11.9091H12.9091V13.9091ZM15.6498 13.9091C16.7015 13.9091 17.5455 13.031 17.5455 12H15.5455C15.5455 11.9654 15.5595 11.9454 15.5673 11.9375C15.5752 11.9295 15.6016 11.9091 15.6498 11.9091V13.9091ZM17.5455 12C17.5455 10.969 16.7015 10.0909 15.6498 10.0909V12.0909C15.6016 12.0909 15.5752 12.0705 15.5673 12.0625C15.5595 12.0546 15.5455 12.0346 15.5455 12H17.5455ZM15.6498 10.0909H12.9091V12.0909H15.6498V10.0909ZM13.9091 11.0909V8.35023H11.9091V11.0909H13.9091ZM13.9091 8.35023C13.9091 7.29853 13.031 6.45455 12 6.45455V8.45455C11.9654 8.45455 11.9454 8.44049 11.9375 8.43268C11.9295 8.42485 11.9091 8.39841 11.9091 8.35023H13.9091ZM12 6.45455C10.969 6.45455 10.0909 7.29853 10.0909 8.35023H12.0909C12.0909 8.39841 12.0705 8.42485 12.0625 8.43268C12.0546 8.44049 12.0346 8.45455 12 8.45455V6.45455ZM10.0909 8.35023V11.0909H12.0909V8.35023H10.0909ZM11.0909 10.0909H8.35023V12.0909H11.0909V10.0909Z" fill="#FFEDD5" mask="url(#path-2-inside-1_3_441)"/>
</g>
<defs>
<clipPath id="clip0_3_441">
<rect width="24" height="24" fill="white"/>
</clipPath>
</defs>
</svg>
