<svg width="21" height="24" viewBox="0 0 21 24" fill="none" xmlns="http://www.w3.org/2000/svg">
<path d="M9.58955 14.9789C9.70842 15.0853 9.86096 15.1413 10.0158 15.1413C10.0893 15.1413 10.1637 15.1287 10.2348 15.1029C10.4561 15.0224 10.6158 14.8272 10.6501 14.5941L11.0537 11.8694C11.7273 11.9465 12.2943 12.4056 12.4977 13.0673L12.5954 13.386C12.8778 13.2331 13.1765 13.1072 13.4831 13.0004L13.4175 12.785C13.0702 11.6527 12.0409 10.8917 10.8566 10.8917H10.5124L9.59343 10.2883C9.51678 10.2375 9.43145 10.212 9.34547 10.198L9.28288 9.89284C10.0471 9.30786 10.7377 8.44512 11.1507 7.45915C11.7248 7.23582 12.1887 6.66336 12.3466 5.95192C12.5483 5.03672 12.1933 4.15178 11.5128 3.79395C11.3198 2.08173 10.6103 0 7.376 0C4.16683 0 3.44724 2.07303 3.24459 3.78212C2.56801 4.12709 2.20044 5.02465 2.40534 5.95227C2.56329 6.66326 3.02717 7.23577 3.60128 7.4591C4.01429 8.44507 4.70497 9.30781 5.46912 9.89279L5.40653 10.1979C5.32045 10.212 5.23521 10.2374 5.15857 10.2882L4.23866 10.8916H3.89533C2.71116 10.8916 1.68183 11.6527 1.33452 12.7849L0.116682 16.7552C-0.131278 17.5643 0.0212134 18.4529 0.524136 19.1329C1.02711 19.8131 1.83198 20.219 2.67823 20.219H9.64891C9.56596 19.9068 9.50183 19.5869 9.47059 19.2569H8.12996L8.64545 16.0473L8.03772 14.5107L8.53284 14.0379L9.58955 14.9789ZM10.4436 11.6136L10.0158 14.4998L7.82503 12.5487L9.24151 10.8244L10.4436 11.6136ZM4.41395 6.89711C4.35534 6.73717 4.21611 6.62064 4.04866 6.59049C3.78983 6.5436 3.45892 6.25884 3.34472 5.74414C3.2274 5.21465 3.42847 4.68277 3.7711 4.6089C3.98772 4.57284 4.15188 4.39532 4.1716 4.17716C4.37411 1.89357 5.30262 0.961985 7.37605 0.961985C9.49031 0.961985 10.3898 1.86307 10.5838 4.17512C10.6017 4.39065 10.7613 4.56778 10.974 4.60771C10.9819 4.6092 10.9904 4.61044 10.9999 4.61164C11.3315 4.70552 11.5215 5.22602 11.4066 5.74414C11.2932 6.25884 10.9623 6.5436 10.7034 6.59049C10.536 6.62059 10.3968 6.73757 10.3382 6.89711C9.72814 8.55018 8.28727 9.70196 7.37605 9.70196C6.46478 9.70196 5.02401 8.55023 4.41395 6.89711ZM7.376 10.664C7.70999 10.664 8.06037 10.5772 8.41011 10.4247L8.47657 10.7446L7.96103 11.3727L7.376 12.0844L6.79102 11.3727L6.27553 10.7446L6.34199 10.4247C6.69158 10.5772 7.04201 10.664 7.376 10.664ZM5.51054 10.8244L6.92707 12.5487L4.73622 14.4998L4.3076 11.6136L5.51054 10.8244ZM2.67828 19.2569C2.13617 19.2569 1.62003 18.9965 1.29697 18.5604C0.97545 18.1251 0.877796 17.5553 1.0365 17.0371L2.25434 13.0672C2.45774 12.4059 3.02399 11.9468 3.69754 11.8698L4.10186 14.594C4.13624 14.8272 4.29583 15.0223 4.51721 15.1029C4.58844 15.1287 4.66265 15.1412 4.73617 15.1412C4.89109 15.1412 5.04358 15.0852 5.16254 14.9788L6.2192 14.0379L6.71428 14.5107L6.1066 16.0473L6.62199 19.2569H2.67828V19.2569Z" fill="#FFEDD5"/>
<path d="M15.4534 13.3504C12.5133 13.3504 10.1292 15.7348 10.1292 18.6754C10.1292 21.6159 12.5133 24 15.4534 24C18.3944 24 20.7784 21.6159 20.7784 18.6754C20.7784 15.7348 18.3944 13.3504 15.4534 13.3504ZM17.3948 19.5311H16.3092V20.6167C16.3092 21.0892 15.9259 21.4724 15.4534 21.4724C14.981 21.4724 14.5977 21.0892 14.5977 20.6167V19.5311H13.5128C13.0404 19.5311 12.6571 19.1478 12.6571 18.6754C12.6571 18.2029 13.0404 17.8197 13.5128 17.8197H14.5977V16.734C14.5977 16.2616 14.981 15.8783 15.4534 15.8783C15.9259 15.8783 16.3092 16.2616 16.3092 16.734V17.8197H17.3947C17.8672 17.8197 18.2504 18.2029 18.2504 18.6754C18.2504 19.1478 17.8672 19.5311 17.3948 19.5311Z" fill="#FFEDD5"/>
</svg>
