<svg width="18" height="18" viewBox="0 0 18 18" fill="none" xmlns="http://www.w3.org/2000/svg">
<path d="M2.31189 9.53654C2.31235 10.469 2.95357 11.2245 3.74326 11.2256L11.8759 11.2245L9.67755 13.8208C9.08227 14.5242 9.05164 15.6292 9.61027 16.2899C10.1694 16.9479 11.1052 16.9134 11.7014 16.21L16.293 10.7873C16.8901 10.0844 16.9203 8.97882 16.3607 8.31865C16.3454 8.30277 16.3291 8.29071 16.3143 8.27483C16.2953 8.25127 16.2818 8.22333 16.2619 8.19867L11.7316 2.85051C11.1433 2.15693 10.2144 2.12954 9.65574 2.7897C9.09665 3.44987 9.12078 4.54722 9.70724 5.2419L11.9135 7.8464H3.74326C2.95264 7.84586 2.31189 8.6019 2.31189 9.53654Z" fill="#FB923C"/>
</svg>
