<svg width="19" height="19" viewBox="0 0 19 19" fill="none" xmlns="http://www.w3.org/2000/svg">
<path d="M14.1698 11.1429C14.2973 10.9124 14.4135 10.6749 14.5169 10.4303C14.9082 9.5053 15.1066 8.52345 15.1066 7.51208C15.1066 6.5007 14.9082 5.51889 14.5169 4.59384C14.1393 3.70104 13.599 2.89954 12.911 2.21155C12.223 1.52356 11.4215 0.983254 10.5287 0.605631C9.60369 0.214418 8.62184 0.0160217 7.6105 0.0160217C6.59916 0.0160217 5.61728 0.214418 4.69226 0.605696C3.79947 0.983318 2.99796 1.52362 2.30997 2.21162C1.62202 2.89961 1.08168 3.70111 0.704054 4.5939C0.312776 5.51895 0.11438 6.50077 0.11438 7.51211C0.11438 8.52345 0.312744 9.5053 0.704022 10.4303C1.08164 11.3232 1.62195 12.1246 2.30994 12.8126C2.99793 13.5006 3.79943 14.0409 4.69223 14.4186C5.61728 14.8098 6.59913 15.0082 7.61047 15.0082C8.62181 15.0082 9.60366 14.8099 10.5287 14.4186C10.6837 14.353 10.8358 14.2822 10.9852 14.2069L15.1852 18.407C15.5573 18.779 16.052 18.9839 16.5781 18.9839C17.1043 18.9839 17.599 18.779 17.971 18.407L18.3096 18.0685C19.0776 17.3004 19.0776 16.0507 18.3096 15.2827L14.1698 11.1429ZM11.1958 12.4755C10.8116 12.7535 10.3939 12.9879 9.9499 13.1717C9.22908 13.47 8.43909 13.6349 7.61047 13.6349C4.22892 13.6349 1.48767 10.8937 1.48767 7.51211C1.48767 4.13056 4.22892 1.38931 7.61047 1.38931C10.992 1.38931 13.7333 4.1306 13.7333 7.51211C13.7333 8.44607 13.5238 9.33098 13.1499 10.123C12.9475 10.5517 12.6969 10.9531 12.4049 11.3202C12.0566 11.758 11.6496 12.1471 11.1958 12.4755ZM17.3385 17.0974L17 17.4359C16.8835 17.5525 16.7308 17.6107 16.5782 17.6107C16.4255 17.6107 16.2728 17.5524 16.1563 17.4359L12.1773 13.4569C12.4341 13.2592 12.6791 13.0445 12.911 12.8126C13.0765 12.6472 13.2332 12.475 13.3814 12.2966L17.3385 16.2538C17.5715 16.4868 17.5715 16.8644 17.3385 17.0974Z" fill="#FFEDD5"/>
<path d="M16.5782 19C16.0477 19 15.549 18.7934 15.1739 18.4183L10.982 14.2264C10.8331 14.3013 10.6827 14.3709 10.535 14.4333C9.60799 14.8254 8.62406 15.0243 7.61051 15.0243C6.59705 15.0243 5.61308 14.8254 4.68602 14.4333C3.79136 14.0549 2.98813 13.5135 2.29863 12.824C1.60914 12.1345 1.06771 11.3313 0.689282 10.4366C0.297203 9.50957 0.0983582 8.52567 0.0983582 7.51212C0.0983582 6.49863 0.297171 5.51469 0.689282 4.58766C1.06767 3.693 1.60914 2.88977 2.29863 2.20027C2.98813 1.51081 3.79133 0.969348 4.68602 0.590924C5.61305 0.198813 6.59695 0 7.61051 0C8.62399 0 9.60793 0.198813 10.535 0.590924C11.4297 0.969348 12.2329 1.51081 12.9224 2.20027C13.6118 2.88971 14.1533 3.69294 14.5317 4.58766C14.9238 5.51463 15.1227 6.49856 15.1227 7.51212C15.1227 8.52557 14.9238 9.50951 14.5317 10.4366C14.4314 10.6738 14.3163 10.9104 14.1897 11.14L18.321 15.2714C19.0952 16.0457 19.0952 17.3055 18.321 18.0798L17.9824 18.4183C17.6074 18.7934 17.1086 19 16.5782 19ZM10.9883 14.1874L15.1966 18.3957C15.5656 18.7647 16.0563 18.9679 16.5782 18.9679C17.1001 18.9679 17.5907 18.7647 17.9598 18.3957L18.2983 18.0572C19.0601 17.2953 19.0601 16.0558 18.2983 15.294L14.1499 11.1457L14.1558 11.1351C14.2843 10.9031 14.4008 10.6639 14.5022 10.4241C14.8926 9.50098 15.0906 8.52128 15.0906 7.51212C15.0906 6.50289 14.8926 5.52316 14.5022 4.60013C14.1254 3.70922 13.5862 2.90942 12.8997 2.22291C12.2132 1.53639 11.4134 0.997236 10.5226 0.620416C9.5994 0.230035 8.61967 0.0320562 7.61051 0.0320562C6.60131 0.0320562 5.62158 0.230035 4.69852 0.620448C3.80765 0.997236 3.00784 1.53639 2.3213 2.22294C1.63475 2.90949 1.09559 3.70932 0.718806 4.60016C0.328393 5.52322 0.130446 6.50295 0.130446 7.51215C0.130446 8.52137 0.328393 9.50107 0.718806 10.4241C1.09559 11.3149 1.63475 12.1147 2.3213 12.8013C3.00788 13.4879 3.80768 14.027 4.69852 14.4038C5.62161 14.7942 6.60134 14.9922 7.61051 14.9922C8.61973 14.9922 9.59947 14.7942 10.5225 14.4038C10.673 14.3402 10.8263 14.2691 10.9779 14.1926L10.9883 14.1874ZM16.5782 17.6267C16.4146 17.6267 16.2607 17.563 16.145 17.4473L12.1531 13.4554L12.1675 13.4442C12.4251 13.2458 12.6714 13.0295 12.8997 12.8013C13.0625 12.6384 13.2205 12.4652 13.3691 12.2864L13.3803 12.2729L17.3499 16.2424C17.5887 16.4812 17.5887 16.8699 17.3499 17.1087L17.0113 17.4473C16.8956 17.563 16.7418 17.6267 16.5782 17.6267ZM12.2015 13.4585L16.1677 17.4246C16.2773 17.5343 16.4231 17.5947 16.5782 17.5947C16.7333 17.5947 16.879 17.5343 16.9887 17.4246L17.3273 17.0861C17.5536 16.8597 17.5536 16.4914 17.3273 16.2651L13.3825 12.3204C13.2365 12.4952 13.0818 12.6645 12.9223 12.824C12.6974 13.0489 12.455 13.2624 12.2015 13.4585ZM7.61044 13.651C4.22547 13.651 1.47161 10.8971 1.47161 7.51212C1.47161 4.12714 4.22547 1.37329 7.61047 1.37329C10.9955 1.37329 13.7493 4.12717 13.7493 7.51212C13.7493 8.42706 13.5525 9.30778 13.1644 10.1299C12.963 10.5564 12.7117 10.9602 12.4175 11.3301C12.0679 11.7696 11.66 12.1593 11.2052 12.4885C10.8172 12.7692 10.397 13.004 9.95603 13.1865C9.2113 13.4947 8.42214 13.651 7.61044 13.651ZM7.61047 1.40534C4.24319 1.40534 1.50367 4.14483 1.50367 7.51212C1.50367 10.8794 4.24316 13.6189 7.61044 13.6189C8.4179 13.6189 9.20293 13.4634 9.94375 13.1569C10.3824 12.9754 10.8005 12.7418 11.1864 12.4625C11.6389 12.1351 12.0446 11.7473 12.3924 11.3102C12.6851 10.9422 12.9351 10.5405 13.1354 10.1162C13.5215 9.29845 13.7173 8.42232 13.7173 7.51215C13.7173 4.14484 10.9778 1.40534 7.61047 1.40534Z" fill="#FFEDD5"/>
</svg>
