<svg width="21" height="21" viewBox="0 0 21 21" fill="none" xmlns="http://www.w3.org/2000/svg">
<path fill-rule="evenodd" clip-rule="evenodd" d="M12.25 6.125C11.7667 6.125 11.375 6.51675 11.375 7V14C11.375 14.4833 11.7667 14.875 12.25 14.875H15.75C16.2333 14.875 16.625 14.4833 16.625 14V7C16.625 6.51675 16.2333 6.125 15.75 6.125H12.25ZM14.875 7.875H13.125V13.125H14.875V7.875Z" fill="#FFEDD5"/>
<path d="M5.25 6.125C4.76675 6.125 4.375 6.51675 4.375 7C4.375 7.48325 4.76675 7.875 5.25 7.875H8.75C9.23326 7.875 9.625 7.48325 9.625 7C9.625 6.51675 9.23326 6.125 8.75 6.125H5.25Z" fill="#FFEDD5"/>
<path d="M5.25 9.625C4.76675 9.625 4.375 10.0167 4.375 10.5C4.375 10.9833 4.76675 11.375 5.25 11.375H8.75C9.23326 11.375 9.625 10.9833 9.625 10.5C9.625 10.0167 9.23326 9.625 8.75 9.625H5.25Z" fill="#FFEDD5"/>
<path d="M4.375 14C4.375 13.5167 4.76675 13.125 5.25 13.125H8.75C9.23326 13.125 9.625 13.5167 9.625 14C9.625 14.4833 9.23326 14.875 8.75 14.875H5.25C4.76675 14.875 4.375 14.4833 4.375 14Z" fill="#FFEDD5"/>
<path fill-rule="evenodd" clip-rule="evenodd" d="M3.5 2.625C2.05026 2.625 0.875 3.80026 0.875 5.25V15.75C0.875 17.1998 2.05026 18.375 3.5 18.375H17.5C18.9498 18.375 20.125 17.1998 20.125 15.75V5.25C20.125 3.80026 18.9498 2.625 17.5 2.625H3.5ZM17.5 4.375H3.5C3.01675 4.375 2.625 4.76675 2.625 5.25V15.75C2.625 16.2333 3.01675 16.625 3.5 16.625H17.5C17.9833 16.625 18.375 16.2333 18.375 15.75V5.25C18.375 4.76675 17.9833 4.375 17.5 4.375Z" fill="#FFEDD5"/>
</svg>
